REM DIRINDEX 1\2\6,1\2\7,1\2\8,1\3\9,1\3\10,1\3\11,1\4\12,1\4\13,1\4\14,1\5\15,1\5\16,1\5\17,1\5\18
REM DIRNAME folder01,folder02,folder03,folder04,folder05,folder06,folder07,folder08,folder09,folder10,folder11,folder12,folder13,folder14,folder15,folder16,folder17,folder18
TITLE ""
FILE "" MP3
  TRACK 01 AUDIO
    TITLE "16:cjc019_6691"
    INDEX 01 00:00:00
  TRACK 02 AUDIO
    TITLE "0:"
    INDEX 01 00:01:26
  TRACK 03 AUDIO
    TITLE "18:cjc019_6692"
    INDEX 01 00:02:14
  TRACK 04 AUDIO
    TITLE "0:"
    INDEX 01 00:03:37
  TRACK 05 AUDIO
    TITLE "17:cjc019_6693"
    INDEX 01 00:04:15
  TRACK 06 AUDIO
    TITLE "0:"
    INDEX 01 00:05:54
  TRACK 07 AUDIO
    TITLE "16:cjc019_6694"
    INDEX 01 00:07:43
  TRACK 08 AUDIO
    TITLE "0:"
    INDEX 01 00:08:62
  TRACK 09 AUDIO
    TITLE "18:cjc019_6695"
    INDEX 01 00:09:44
  TRACK 10 AUDIO
    TITLE "0:"
    INDEX 01 00:11:46
  TRACK 11 AUDIO
    TITLE "17:cjc019_6696"
    INDEX 01 00:12:26
  TRACK 12 AUDIO
    TITLE "0:"
    INDEX 01 00:13:49
  TRACK 13 AUDIO
    TITLE "16:cjc019_6697"
    INDEX 01 00:15:34
  TRACK 14 AUDIO
    TITLE "0:"
    INDEX 01 00:17:14
  TRACK 15 AUDIO
    TITLE "18:cjc019_6698"
    INDEX 01 00:17:69
  TRACK 16 AUDIO
    TITLE "0:"
    INDEX 01 00:20:41
  TRACK 17 AUDIO
    TITLE "17:cjc019_6699"
    INDEX 01 00:21:25
  TRACK 18 AUDIO
    TITLE "0:"
    INDEX 01 00:23:12
  TRACK 19 AUDIO
    TITLE "16:cjc019_6700"
    INDEX 01 00:24:72
  TRACK 20 AUDIO
    TITLE "0:"
    INDEX 01 00:26:09
  TRACK 21 AUDIO
    TITLE "18:cjc019_6701"
    INDEX 01 00:26:73
  TRACK 22 AUDIO
    TITLE "0:"
    INDEX 01 00:29:62
  TRACK 23 AUDIO
    TITLE "17:cjc019_6702"
    INDEX 01 00:30:36
  TRACK 24 AUDIO
    TITLE "0:"
    INDEX 01 00:31:45
  TRACK 25 AUDIO
    TITLE "16:cjc019_6703"
    INDEX 01 00:33:30
  TRACK 26 AUDIO
    TITLE "0:"
    INDEX 01 00:34:51
  TRACK 27 AUDIO
    TITLE "18:cjc019_6704"
    INDEX 01 00:35:29
  TRACK 28 AUDIO
    TITLE "0:"
    INDEX 01 00:37:67
  TRACK 29 AUDIO
    TITLE "17:cjc019_6705"
    INDEX 01 00:38:43
  TRACK 30 AUDIO
    TITLE "0:"
    INDEX 01 00:39:70
  TRACK 31 AUDIO
    TITLE "16:cjc019_6706"
    INDEX 01 00:41:51
  TRACK 32 AUDIO
    TITLE "0:"
    INDEX 01 00:43:01
  TRACK 33 AUDIO
    TITLE "18:cjc019_6707"
    INDEX 01 00:43:62
  TRACK 34 AUDIO
    TITLE "0:"
    INDEX 01 00:45:33
  TRACK 35 AUDIO
    TITLE "17:cjc019_6708"
    INDEX 01 00:46:07
  TRACK 36 AUDIO
    TITLE "0:"
    INDEX 01 00:47:36
  TRACK 37 AUDIO
    TITLE "16:cjc019_6709"
    INDEX 01 00:49:18
  TRACK 38 AUDIO
    TITLE "0:"
    INDEX 01 00:50:33
  TRACK 39 AUDIO
    TITLE "18:cjc019_6710"
    INDEX 01 00:51:13
  TRACK 40 AUDIO
    TITLE "0:"
    INDEX 01 00:54:19
  TRACK 41 AUDIO
    TITLE "17:cjc019_6711"
    INDEX 01 00:54:66
  TRACK 42 AUDIO
    TITLE "0:"
    INDEX 01 00:56:04
  TRACK 43 AUDIO
    TITLE "16:cjc019_6712"
    INDEX 01 00:57:60
  TRACK 44 AUDIO
    TITLE "0:"
    INDEX 01 00:58:73
  TRACK 45 AUDIO
    TITLE "18:cjc019_6713"
    INDEX 01 00:59:55
  TRACK 46 AUDIO
    TITLE "0:"
    INDEX 01 01:02:54
  TRACK 47 AUDIO
    TITLE "17:cjc019_6714"
    INDEX 01 01:03:27
  TRACK 48 AUDIO
    TITLE "0:"
    INDEX 01 01:04:43
  TRACK 49 AUDIO
    TITLE "16:cjc019_6715"
    INDEX 01 01:06:26
  TRACK 50 AUDIO
    TITLE "0:"
    INDEX 01 01:07:41
  TRACK 51 AUDIO
    TITLE "18:cjc019_6716"
    INDEX 01 01:08:33
  TRACK 52 AUDIO
    TITLE "0:"
    INDEX 01 01:11:02
  TRACK 53 AUDIO
    TITLE "17:cjc019_6717"
    INDEX 01 01:11:49
  TRACK 54 AUDIO
    TITLE "0:"
    INDEX 01 01:12:62
  TRACK 55 AUDIO
    TITLE "16:cjc019_6718"
    INDEX 01 01:14:47
  TRACK 56 AUDIO
    TITLE "0:"
    INDEX 01 01:16:01
  TRACK 57 AUDIO
    TITLE "18:cjc019_6719"
    INDEX 01 01:16:60
  TRACK 58 AUDIO
    TITLE "0:"
    INDEX 01 01:18:53
  TRACK 59 AUDIO
    TITLE "17:cjc019_6720"
    INDEX 01 01:19:30
  TRACK 60 AUDIO
    TITLE "0:"
    INDEX 01 01:20:61
  TRACK 61 AUDIO
    TITLE "16:cjc019_6721"
    INDEX 01 01:22:39
  TRACK 62 AUDIO
    TITLE "0:"
    INDEX 01 01:23:52
  TRACK 63 AUDIO
    TITLE "18:cjc019_6722"
    INDEX 01 01:24:34
  TRACK 64 AUDIO
    TITLE "0:"
    INDEX 01 01:27:01
  TRACK 65 AUDIO
    TITLE "17:cjc019_6723"
    INDEX 01 01:27:48
  TRACK 66 AUDIO
    TITLE "0:"
    INDEX 01 01:28:61
  TRACK 67 AUDIO
    TITLE "16:cjc019_6724"
    INDEX 01 01:30:52
  TRACK 68 AUDIO
    TITLE "0:"
    INDEX 01 01:31:69
  TRACK 69 AUDIO
    TITLE "18:cjc019_6725"
    INDEX 01 01:32:49
  TRACK 70 AUDIO
    TITLE "0:"
    INDEX 01 01:34:71
  TRACK 71 AUDIO
    TITLE "17:cjc019_6726"
    INDEX 01 01:35:47
  TRACK 72 AUDIO
    TITLE "0:"
    INDEX 01 01:36:62
  TRACK 73 AUDIO
    TITLE "16:cjc019_6727"
    INDEX 01 01:38:40
  TRACK 74 AUDIO
    TITLE "0:"
    INDEX 01 01:39:47
  TRACK 75 AUDIO
    TITLE "18:cjc019_6728"
    INDEX 01 01:40:29
  TRACK 76 AUDIO
    TITLE "0:"
    INDEX 01 01:43:27
  TRACK 77 AUDIO
    TITLE "17:cjc019_6729"
    INDEX 01 01:44:05
  TRACK 78 AUDIO
    TITLE "0:"
    INDEX 01 01:45:12
  TRACK 79 AUDIO
    TITLE "16:cjc019_6730"
    INDEX 01 01:46:74
  TRACK 80 AUDIO
    TITLE "0:"
    INDEX 01 01:48:32
  TRACK 81 AUDIO
    TITLE "18:cjc019_6731"
    INDEX 01 01:49:18
  TRACK 82 AUDIO
    TITLE "0:"
    INDEX 01 01:51:64
  TRACK 83 AUDIO
    TITLE "17:cjc019_6732"
    INDEX 01 01:52:44
  TRACK 84 AUDIO
    TITLE "0:"
    INDEX 01 01:54:05
  TRACK 85 AUDIO
    TITLE "16:cjc019_6733"
    INDEX 01 01:55:63
  TRACK 86 AUDIO
    TITLE "0:"
    INDEX 01 01:57:09
  TRACK 87 AUDIO
    TITLE "18:cjc019_6734"
    INDEX 01 01:57:68
  TRACK 88 AUDIO
    TITLE "0:"
    INDEX 01 01:59:34
  TRACK 89 AUDIO
    TITLE "17:cjc019_6735"
    INDEX 01 02:00:14
  TRACK 90 AUDIO
    TITLE "0:"
    INDEX 01 02:01:43
  TRACK 91 AUDIO
    TITLE "16:cjc019_6736"
    INDEX 01 02:03:22
  TRACK 92 AUDIO
    TITLE "0:"
    INDEX 01 02:04:41
  TRACK 93 AUDIO
    TITLE "18:cjc019_6737"
    INDEX 01 02:05:15
  TRACK 94 AUDIO
    TITLE "0:"
    INDEX 01 02:08:03
  TRACK 95 AUDIO
    TITLE "17:cjc019_6738"
    INDEX 01 02:08:50
  TRACK 96 AUDIO
    TITLE "0:"
    INDEX 01 02:10:02
  TRACK 97 AUDIO
    TITLE "16:cjc019_6739"
    INDEX 01 02:11:53
  TRACK 98 AUDIO
    TITLE "0:"
    INDEX 01 02:13:09
  TRACK 99 AUDIO
    TITLE "18:cjc019_6740"
    INDEX 01 02:13:61
  TRACK 100 AUDIO
    TITLE "0:"
    INDEX 01 02:17:00
  TRACK 101 AUDIO
    TITLE "17:cjc019_6741"
    INDEX 01 02:17:53
  TRACK 102 AUDIO
    TITLE "0:"
    INDEX 01 02:19:15
  TRACK 103 AUDIO
    TITLE "16:cjc019_6742"
    INDEX 01 02:20:73
  TRACK 104 AUDIO
    TITLE "0:"
    INDEX 01 02:22:21
  TRACK 105 AUDIO
    TITLE "18:cjc019_6743"
    INDEX 01 02:23:03
  TRACK 106 AUDIO
    TITLE "0:"
    INDEX 01 02:25:47
  TRACK 107 AUDIO
    TITLE "17:cjc019_6744"
    INDEX 01 02:26:27
  TRACK 108 AUDIO
    TITLE "0:"
    INDEX 01 02:27:50
